<svg xmlns="http://www.w3.org/2000/svg" xmlns:xlink="http://www.w3.org/1999/xlink" version="1.1" x="0px" y="0px" viewBox="0 0 1000 1000" enable-background="new 0 0 1000 1000" xml:space="preserve">
<metadata fill="#42dca3"> Svg Vector Icons : http://www.onlinewebfonts.com/icon </metadata>
<g><path d="M543.9,562.1c-11.3,11.3-26.4,17.6-42.4,17.6c-16.1,0-31.1-6.2-42.4-17.6l-19.5-19.5L285.2,674.2h427.4L561,544.9L543.9,562.1z M263.4,366.4c-1,2.5-1.7,5.1-1.7,8v267.4l149.5-127.6L263.4,366.4z M515.6,533.8l179.3-179.3H308l179.4,179.3C494.9,541.3,508,541.3,515.6,533.8z M501.5,8.5C230,8.5,10,228.5,10,500c0,271.5,220,491.5,491.5,491.5C773,991.5,990,771.5,990,500C990,228.5,772.9,8.5,501.5,8.5z M781.2,654.2c0,33-26.9,59.9-59.9,59.9H281.7c-33,0-59.9-26.9-59.9-59.9V374.4c0-33,26.9-59.9,59.9-59.9h439.6c33,0,59.9,26.9,59.9,59.9V654.2z M589.4,516.5l151.9,129.6V374.4c0-2.9-0.7-5.6-1.7-8L589.4,516.5z" fill="#42dca3"/></g>
</svg>